<svg width="10" height="16" viewBox="0 0 10 16" fill="none" xmlns="http://www.w3.org/2000/svg">
<path d="M2.08366 6.33333C1.75402 6.33333 1.43179 6.43108 1.15771 6.61422C0.883628 6.79735 0.670006 7.05765 0.54386 7.3622C0.417714 7.66674 0.384709 8.00185 0.449017 8.32515C0.513326 8.64845 0.672061 8.94543 0.905148 9.17851C1.13824 9.4116 1.43521 9.57034 1.75851 9.63464C2.08181 9.69895 2.41692 9.66595 2.72147 9.5398C3.02601 9.41366 3.28631 9.20003 3.46944 8.92595C3.65258 8.65187 3.75033 8.32964 3.75033 8C3.75033 7.55797 3.57473 7.13405 3.26217 6.82149C2.94961 6.50893 2.52569 6.33333 2.08366 6.33333ZM2.08366 12.1667C1.75402 12.1667 1.43179 12.2644 1.15771 12.4476C0.883628 12.6307 0.670006 12.891 0.54386 13.1955C0.417714 13.5001 0.384709 13.8352 0.449017 14.1585C0.513326 14.4818 0.672061 14.7788 0.905148 15.0118C1.13824 15.2449 1.43521 15.4037 1.75851 15.468C2.08181 15.5323 2.41692 15.4993 2.72147 15.3731C3.02601 15.247 3.28631 15.0334 3.46944 14.7593C3.65258 14.4852 3.75033 14.163 3.75033 13.8333C3.75033 13.3913 3.57473 12.9674 3.26217 12.6548C2.94961 12.3423 2.52569 12.1667 2.08366 12.1667ZM7.91699 3.83333C8.24663 3.83333 8.56886 3.73559 8.84294 3.55245C9.11703 3.36931 9.33065 3.10902 9.45679 2.80447C9.58294 2.49993 9.61594 2.16482 9.55163 1.84152C9.48733 1.51822 9.32859 1.22124 9.0955 0.988156C8.86242 0.755069 8.56544 0.596334 8.24214 0.532025C7.91884 0.467717 7.58373 0.500722 7.27919 0.626868C6.97464 0.753014 6.71435 0.966635 6.53121 1.24072C6.34807 1.5148 6.25033 1.83703 6.25033 2.16667C6.25033 2.6087 6.42592 3.03262 6.73848 3.34518C7.05104 3.65774 7.47497 3.83333 7.91699 3.83333ZM2.08366 0.500001C1.75402 0.500001 1.43179 0.597749 1.15771 0.780885C0.883628 0.96402 0.670006 1.22432 0.54386 1.52886C0.417714 1.83341 0.384709 2.16852 0.449017 2.49182C0.513326 2.81512 0.672061 3.11209 0.905148 3.34518C1.13824 3.57827 1.43521 3.737 1.75851 3.80131C2.08181 3.86562 2.41692 3.83261 2.72147 3.70647C3.02601 3.58032 3.28631 3.3667 3.46944 3.09262C3.65258 2.81854 3.75033 2.4963 3.75033 2.16667C3.75033 1.72464 3.57473 1.30072 3.26217 0.988156C2.94961 0.675595 2.52569 0.500001 2.08366 0.500001ZM7.91699 12.1667C7.58736 12.1667 7.26512 12.2644 6.99104 12.4476C6.71696 12.6307 6.50334 12.891 6.37719 13.1955C6.25105 13.5001 6.21804 13.8352 6.28235 14.1585C6.34666 14.4818 6.50539 14.7788 6.73848 15.0118C6.97157 15.2449 7.26854 15.4037 7.59184 15.468C7.91514 15.5323 8.25026 15.4993 8.5548 15.3731C8.85934 15.247 9.11964 15.0334 9.30278 14.7593C9.48591 14.4852 9.58366 14.163 9.58366 13.8333C9.58366 13.3913 9.40806 12.9674 9.0955 12.6548C8.78294 12.3423 8.35902 12.1667 7.91699 12.1667ZM7.91699 6.33333C7.58736 6.33333 7.26512 6.43108 6.99104 6.61422C6.71696 6.79735 6.50334 7.05765 6.37719 7.3622C6.25105 7.66674 6.21804 8.00185 6.28235 8.32515C6.34666 8.64845 6.50539 8.94543 6.73848 9.17851C6.97157 9.4116 7.26854 9.57034 7.59184 9.63464C7.91514 9.69895 8.25026 9.66595 8.5548 9.5398C8.85934 9.41366 9.11964 9.20003 9.30278 8.92595C9.48591 8.65187 9.58366 8.32964 9.58366 8C9.58366 7.55797 9.40806 7.13405 9.0955 6.82149C8.78294 6.50893 8.35902 6.33333 7.91699 6.33333Z" fill="#B0B2C1"/>
</svg>
